<?xml version="1.0" encoding="UTF-8" standalone="no"?>
<svg
   xmlns:dc="http://purl.org/dc/elements/1.1/"
   xmlns:cc="http://creativecommons.org/ns#"
   xmlns:rdf="http://www.w3.org/1999/02/22-rdf-syntax-ns#"
   xmlns:svg="http://www.w3.org/2000/svg"
   xmlns="http://www.w3.org/2000/svg"
   xmlns:sodipodi="http://sodipodi.sourceforge.net/DTD/sodipodi-0.dtd"
   xmlns:inkscape="http://www.inkscape.org/namespaces/inkscape"
   width="20"
   height="20"
   id="svg3026"
   version="1.1"
   inkscape:version="0.92.3 (2405546, 2018-03-11)"
   sodipodi:docname="Back_Arrow.svg">
  <metadata
     id="metadata3038">
    <rdf:RDF>
      <cc:Work
         rdf:about="">
        <dc:format>image/svg+xml</dc:format>
        <dc:type
           rdf:resource="http://purl.org/dc/dcmitype/StillImage" />
        <dc:title></dc:title>
      </cc:Work>
    </rdf:RDF>
  </metadata>
  <defs
     id="defs3036">
    <linearGradient
       id="linearGradient4006">
      <stop
         style="stop-color:#252525;stop-opacity:1;"
         offset="0"
         id="stop4008" />
      <stop
         style="stop-color:#4a4a4a;stop-opacity:1;"
         offset="1"
         id="stop4010" />
    </linearGradient>
  </defs>
  <sodipodi:namedview
     pagecolor="#ffffff"
     bordercolor="#666666"
     borderopacity="1"
     objecttolerance="10"
     gridtolerance="10"
     guidetolerance="10"
     inkscape:pageopacity="0"
     inkscape:pageshadow="2"
     inkscape:window-width="1311"
     inkscape:window-height="713"
     id="namedview3034"
     showgrid="true"
     inkscape:zoom="26.304372"
     inkscape:cx="13.361899"
     inkscape:cy="10.805429"
     inkscape:window-x="55"
     inkscape:window-y="27"
     inkscape:window-maximized="1"
     inkscape:current-layer="g3028">
    <inkscape:grid
       type="xygrid"
       id="grid3040" />
  </sodipodi:namedview>
  <g
     id="g3028"
     stroke-width="2.23"
     stroke="#d40000">
    <path
       inkscape:connector-curvature="0"
       id="path4003"
       style="font-size:11.38508987000000000px;font-style:normal;font-variant:normal;font-weight:normal;font-stretch:normal;text-align:start;line-height:125%;letter-spacing:0px;word-spacing:0px;writing-mode:lr-tb;text-anchor:start;fill:#1a1a1a;fill-opacity:1;stroke:none;font-family:Segoe UI Symbol;-inkscape-font-specification:Segoe UI Symbol"
       d="m 1.731867,9.9956035 c 2e-5,0.7560365 0.09966,1.4842425 0.298902,2.1846165 0.199287,0.700357 0.477675,1.358232 0.835165,1.973627 0.357528,0.615372 0.786831,1.175079 1.287912,1.67912 0.501116,0.504017 1.057891,0.936251 1.67033,1.296703 0.612469,0.360426 1.270344,0.640279 1.973627,0.839561 0.703309,0.199253 1.432978,0.298886 2.18901,0.298901 0.756055,-1.5e-5 1.484259,-0.09965 2.184616,-0.298901 0.700375,-0.199282 1.355319,-0.479135 1.964834,-0.839561 0.609531,-0.360452 1.167773,-0.792686 1.674726,-1.296703 0.506965,-0.504041 0.940664,-1.063748 1.301099,-1.67912 0.360444,-0.615395 0.641762,-1.27327 0.843956,-1.973627 0.202201,-0.700374 0.3033,-1.42858 0.303296,-2.1846165 4e-6,-0.756049 -0.09963,-1.484254 -0.298901,-2.184615 -0.199263,-0.70037 -0.479116,-1.356779 -0.83956,-1.969231 -0.360435,-0.612454 -0.792669,-1.169231 -1.296704,-1.67033 -0.504022,-0.501098 -1.063729,-0.931867 -1.67912,-1.292307 -0.615377,-0.360439 -1.273251,-0.640292 -1.973626,-0.839561 -0.700357,-0.199264 -1.428561,-0.298899 -2.184616,-0.2989 -0.756032,10e-7 -1.485701,0.09964 -2.18901,0.2989 -0.703283,0.199269 -1.361158,0.477658 -1.973627,0.835165 -0.612439,0.357511 -1.169214,0.786814 -1.67033,1.287912 -0.501081,0.501099 -0.930384,1.05934 -1.287912,1.674726 -0.35749,0.615382 -0.635878,1.273256 -0.835165,1.973626 -0.199247,0.700361 -0.298882,1.428566 -0.298902,2.184615 z m 2.769231,0.035172 0,-0.035172 4.026374,-4.210988 2.918682,0 -3.068132,3.138462 6.672527,0 0,2.1802195 -6.672527,0 3.068132,3.138461 -2.918682,0 z M 0,9.9868115 c 2.0999981e-5,-0.90843 0.120171,-1.784619 0.360439,-2.628572 0.240315,-0.843958 0.58024,-1.636632 1.01978,-2.378021 0.43958,-0.741393 0.964123,-1.416851 1.573627,-2.026375 C 3.563387,2.3443225 4.238845,1.8197795 4.980218,1.3802185 5.721627,0.94065953 6.515765,0.60073453 7.362637,0.36043753 8.209538,0.12014953 9.087192,2.5255985e-6 9.995604,-4.7440151e-7 10.90404,2.5255985e-6 11.781694,0.12015453 12.628571,0.36043853 c 0.846895,0.240297 1.641033,0.577292 2.382418,1.01098997 0.741398,0.433701 1.41832,0.955312 2.030769,1.564835 0.612458,0.609524 1.138465,1.284982 1.578022,2.026374 0.439563,0.74139 0.77949,1.535528 1.01978,2.382416 0.240295,0.846883 0.360442,1.727468 0.36044,2.641759 2e-6,0.9084175 -0.120145,1.7860735 -0.36044,2.6329675 -0.24029,0.846877 -0.580217,1.641015 -1.01978,2.382417 -0.439557,0.74138 -0.965564,1.418303 -1.578022,2.03077 -0.612449,0.61244 -1.289371,1.138447 -2.030769,1.578022 -0.741385,0.439545 -1.535523,0.780937 -2.382418,1.024176 C 11.781694,19.878372 10.90404,19.999984 9.995604,20 9.087192,19.999984 8.209538,19.879837 7.362637,19.63956 6.515765,19.399252 5.721627,19.06079 4.980218,18.624176 4.238845,18.187531 3.563387,17.66299 2.953846,17.050549 2.344342,16.438082 1.819799,15.761159 1.380219,15.019779 0.940679,14.278377 0.600754,13.482774 0.360439,12.632967 0.120168,11.783143 2.0999981e-5,10.901091 0,9.9868125 z" />
    <path
       style="fill:#ffffff;stroke-width:0.08477678"
       d="M 8.9709937,19.933932 C 8.7828121,19.913659 8.3771799,19.846601 8.0695888,19.784913 3.9576404,18.960253 0.74862664,15.56621 0.10899063,11.365312 0.01116925,10.722857 0.01116925,9.27058 0.10899063,8.6281248 0.43018646,6.5186268 1.3728031,4.6249393 2.8693464,3.0826553 4.4222867,1.4822508 6.3476534,0.47852338 8.5437039,0.12451334 c 0.60278,-0.09717 2.0563341,-0.1188357 2.6411621,-0.0393674 2.243115,0.30480129 4.259484,1.29725376 5.847802,2.87827506 1.540196,1.533121 2.520884,3.4716908 2.856057,5.6456955 0.09508,0.6167146 0.09519,2.1188175 1.9e-4,2.7497615 -0.26171,1.738393 -1.000252,3.42872 -2.10401,4.815521 -0.357512,0.449192 -1.174129,1.261221 -1.632204,1.623035 -1.392895,1.10019 -3.006726,1.808884 -4.748668,2.085318 -0.460368,0.07306 -1.9408755,0.1042 -2.4330556,0.05118 z m 2.1099153,-1.728076 c 2.066907,-0.25504 4.142055,-1.459958 5.446291,-3.162346 0.934282,-1.219496 1.534668,-2.693086 1.699971,-4.172412 0.05623,-0.503254 0.04712,-1.3962242 -0.01949,-1.9083817 C 17.739439,5.3620556 14.9608,2.4764048 11.347025,1.8378384 10.783176,1.7382045 9.790378,1.7030616 9.2159697,1.7624036 6.0886824,2.0854829 3.4577542,4.0633528 2.305776,6.9573242 1.9016715,7.972506 1.7288516,8.8849327 1.7288516,10.003278 c 0,0.746597 0.071371,1.325302 0.2488524,2.017786 0.7465271,2.91275 3.0183824,5.220682 5.8828819,5.976301 1.100032,0.290175 2.0564927,0.352098 3.2203231,0.208491 z"
       id="path12"
       inkscape:connector-curvature="0" />
    <path
       style="fill:#ffffff;stroke-width:0.08477678"
       d="M 6.5445139,12.140366 C 5.443171,10.988011 4.5420722,10.030629 4.5420722,10.01285 c 0,-0.017778 0.9003227,-0.9738659 2.0007172,-2.1246391 L 8.5435066,5.795896 H 9.968935 11.394364 L 11.021293,6.185565 C 10.816104,6.399883 10.142545,7.0927173 9.524496,7.7251968 8.906447,8.3576762 8.3950624,8.8922832 8.388086,8.9132122 c -0.0084,0.0252 1.1119658,0.038053 3.316927,0.038053 h 3.329611 v 1.0644618 1.064462 h -3.329611 c -2.1151724,0 -3.3249891,0.01334 -3.3169387,0.03657 0.00697,0.02011 0.5859949,0.623149 1.2867233,1.340082 0.7007284,0.716933 1.3747984,1.410436 1.4979344,1.541118 l 0.223883,0.237603 H 9.9717851 8.5469558 Z"
       id="path14"
       inkscape:connector-curvature="0" />
  </g>
</svg>
