<svg xmlns="http://www.w3.org/2000/svg" xmlns:xlink="http://www.w3.org/1999/xlink" version="1.1" x="0px" y="0px" viewBox="0 0 100 100" enable-background="new 0 0 100 100" xml:space="preserve">

    <path fill="#e5c759" d="M71.145,63.593c5.796-5.799,9.129-13.594,9.134-21.397C80.3,28.774,73.531,6.671,73.244,5.734  c-0.763-2.469-3.049-4.152-5.633-4.152L50,1.597L32.388,1.582c-2.584,0-4.87,1.683-5.633,4.152  c-0.287,0.938-7.055,23.041-7.035,36.462c0.006,7.803,3.338,15.598,9.134,21.397c3.421,3.421,7.602,5.996,12.103,7.492l0.003,9.657  c-6.812,2.842-15.024,4.589-15.018,11.313c0,1.626,0.662,3.096,1.727,4.16c1.064,1.064,2.531,1.725,4.157,1.728l14.817,0.012  c0.074,0,0.154,0.005,0.231,0.005l3.04-0.002H50h0.086l3.04,0.002c0.076,0,0.156-0.005,0.229-0.005l14.817-0.012  c1.627-0.003,3.093-0.663,4.157-1.728c1.065-1.064,1.728-2.534,1.728-4.16c0.006-6.725-8.206-8.472-15.019-11.313l0.003-9.657  C63.542,69.589,67.724,67.014,71.145,63.593z M68.167,92.053l-15.036,0.015l-0.005,0.006h-3.049H50h-0.077h-3.048l-0.006-0.006  l-15.036-0.015c-0.006-5.485,8.516-5.813,15.024-6.916L46.839,66.46c-5.337-0.78-10.145-3.356-13.821-7.031  c-4.565-4.568-7.401-10.793-7.407-17.239C25.59,29.505,32.382,7.47,32.382,7.47L50,7.487L67.617,7.47c0,0,6.792,22.035,6.771,34.72  c-0.006,6.446-2.842,12.67-7.407,17.239c-3.676,3.675-8.483,6.251-13.821,7.031l-0.018,18.677  C59.651,86.239,68.173,86.567,68.167,92.053z"/>

    <path fill="#e5c759" d="M64.359,11.322H35.721c-0.816,3.324-5.393,22.372-5.402,31.704c-0.009,9.463,7.543,18.295,17.304,19.587  l4.926-0.038c4.309-0.636,8.188-2.712,11.156-5.678c3.682-3.685,5.971-8.708,5.977-13.912  C69.696,33.683,65.184,14.717,64.359,11.322z"/>

    <!--<text x="0" y="115" fill="#000000" font-size="5px" font-weight="bold" font-family="'Helvetica Neue', Helvetica, Arial-Unicode, Arial, Sans-serif">Created by Rafael Garcia Motta</text><text x="0" y="120" fill="#000000" font-size="5px" font-weight="bold" font-family="'Helvetica Neue', Helvetica, Arial-Unicode, Arial, Sans-serif">from the Noun Project</text>-->

</svg>